<?xml version="1.0" encoding="UTF-8" standalone="no"?>
<!-- Created with Inkscape (http://www.inkscape.org/) -->

<svg
   xmlns:dc="http://purl.org/dc/elements/1.1/"
   xmlns:cc="http://creativecommons.org/ns#"
   xmlns:rdf="http://www.w3.org/1999/02/22-rdf-syntax-ns#"
   xmlns:svg="http://www.w3.org/2000/svg"
   xmlns="http://www.w3.org/2000/svg"
   xmlns:sodipodi="http://sodipodi.sourceforge.net/DTD/sodipodi-0.dtd"
   xmlns:inkscape="http://www.inkscape.org/namespaces/inkscape"
   id="svg4697"
   version="1.1"
   inkscape:version="0.92.2 (5c3e80d, 2017-08-06)"
   xml:space="preserve"
   width="212.55035"
   height="200"
   viewBox="0 0 212.55035 200"
   sodipodi:docname="logo.svg"><metadata
     id="metadata4703"><rdf:RDF><cc:Work
         rdf:about=""><dc:format>image/svg+xml</dc:format><dc:type
           rdf:resource="http://purl.org/dc/dcmitype/StillImage" /><dc:title></dc:title></cc:Work></rdf:RDF></metadata><defs
     id="defs4701" /><sodipodi:namedview
     pagecolor="#ffffff"
     bordercolor="#666666"
     borderopacity="1"
     objecttolerance="10"
     gridtolerance="10"
     guidetolerance="10"
     inkscape:pageopacity="0"
     inkscape:pageshadow="2"
     inkscape:window-width="1920"
     inkscape:window-height="1011"
     id="namedview4699"
     showgrid="false"
     inkscape:zoom="1.19198"
     inkscape:cx="287.34018"
     inkscape:cy="89.169169"
     inkscape:window-x="-8"
     inkscape:window-y="-8"
     inkscape:window-maximized="1"
     inkscape:current-layer="g4707"
     width="595px"
     fit-margin-top="0"
     fit-margin-left="0"
     fit-margin-right="0"
     fit-margin-bottom="0" /><g
     id="g4705"
     inkscape:groupmode="layer"
     inkscape:label="ink_ext_XXXXXX"
     transform="matrix(1.25,0,0,-1.25,-0.78910203,200.00049)"><g
       id="g4707"
       transform="scale(0.1)"><path
         d="m 546.59079,736.24307 0.1753,-247.14157 c 440.96372,-0.58676 520.99841,0.21824 561.73131,0.21824 89.8699,10.39699 60.3463,124.94644 53.4125,124.87131 6.5796,-0.85509 38.411,115.11831 -52.2999,122.05202 -182.45545,0 -241.15233,-0.30769 -563.01921,0 z m 475.00971,-41.2159 c -116.85352,0.37924 -233.70705,0.75491 -350.557,1.13416 -0.15028,-36.76875 -0.1431,-36.78305 -0.16815,-65.79162 h 348.73585 c 45.5702,10.40416 26.7403,64.57518 1.9893,64.65746 z M 670.87535,536.80747 c 116.90719,0 233.81439,0 350.72515,0 27.277,6.59025 39.6846,51.1621 -0.3363,65.83096 -128.13066,-0.54739 -129.36857,-0.23254 -350.38885,0 -0.58317,0.004 0,-34.76518 0,-65.83096"
         style="fill:#000070;fill-opacity:1;fill-rule:evenodd;stroke:none;stroke-width:0.35777694"
         id="path4709"
         inkscape:connector-curvature="0" /><path
         d="M 1520.8819,1284.5363 1368.755,1138.8209 c 156.2484,-180.47347 224.8914,-550.4685 -18.7188,-832.54879 -73.9489,74.57682 -71.3229,73.68953 -166.1302,166.92621 H 526.25116 C 435.28279,383.22814 433.53686,379.80779 365.12631,309.8724 169.09138,559.70876 150.00362,856.96418 349.45032,1138.7278 c -76.32956,67.4088 -75.2981,66.45 -161.87333,141.9946 C -93.156264,909.36778 -64.676505,357.01919 392.12058,38.515409 c 5.23786,0 184.63796,219.790961 194.90258,219.790961 h 536.11094 c 115.1003,-128.66982 115.9305,-128.692 196.1261,-220.353028 474.2047,326.670398 477.6251,893.950798 201.6217,1246.582958"
         style="fill:#000070;fill-opacity:1;fill-rule:evenodd;stroke:none;stroke-width:0.35777694"
         id="path4711"
         inkscape:connector-curvature="0" /><path
         d="m 272.0374,1365.3688 83.74914,-81.3871 c 188.64685,159.0069 306.41987,185.8508 452.21398,202.1619 l -0.28264,-53.6845 c -284.60442,0 -317.54494,-238.3796 0.96242,-238.3796 v -70.5786 l -148.31644,14.6867 92.64276,-97.2652 55.67368,-3.6351 v -86.71436 h 94.51036 v 84.59636 c 50.19252,10.5544 178.70234,32.2787 178.70234,139.1395 0,78.8827 -117.06811,109.6407 -178.70234,109.6407 v 63.4804 c 39.11218,-0.8729 157.47194,-18.8264 219.94344,-51.5663 6.0928,9.0982 30.4718,46.7327 47.7489,71.6305 -3.2342,6.057 -150.524,62.9365 -267.69592,63.2514 l 0.006,55.9563 c 199.04562,-19.703 350.69642,-93.3406 470.07242,-202.5662 l 76.303,78.8897 c -325.1155,314.6077 -838.96899,316.5468 -1177.53224,2.3435 z m 631.18903,-245.9645 c 127.96607,-10.9229 131.06087,84.6321 -0.11449,75.1438 -0.39355,-0.028 0.12166,-59.0403 0.11449,-75.1438 z m -94.38514,229.4568 c -171.92971,7.8638 -185.55743,-69.1153 0.12523,-65.2192 0.13594,42.3392 0.0823,26.9691 -0.12523,65.2192 z M 855.77447,874.33782 C 688.2955,1054.5931 688.33128,1056.135 482.63817,1264.8657 c -46.03876,-35.8993 -46.92245,-36.6579 -78.64297,-65.7093 203.34969,-201.34261 204.69851,-199.0957 452.12631,-446.6452 271.92829,256.4652 274.31849,258.941 464.03309,440.8312 -38.6971,33.8243 -37.9889,33.277 -83.5731,70.8542 -147.497,-148.1232 -155.2323,-154.1767 -380.80703,-389.85878"
         style="fill:#000070;fill-opacity:1;fill-rule:evenodd;stroke:none;stroke-width:0.35777694"
         id="path4713"
         inkscape:connector-curvature="0" /><path
         d="m 717.25397,145.43456 c 0,-28.81071 11.9104,-31.12231 26.04617,-43.41267 -18.9908,-4.423192 -30.38601,-25.548852 -30.38601,-49.923837 0,-36.525271 33.49508,-52.09414675 65.11541,-52.09414675 33.19097,0 56.43216,23.00255175 56.43216,56.43505475 0,23.229027 -11.76013,41.243812 -30.38956,45.582929 6.28254,5.45896 23.87444,16.87026 23.87444,28.21966 v 13.02272 c 0,62.22672 -110.69261,59.65073 -110.69261,2.17029 z m 31.40925,-83.030742 c 0,-15.722509 6.74768,-31.104198 25.35206,-31.104198 33.91726,0 33.91726,56.458778 0,56.458778 -14.00339,0 -25.35206,-11.350832 -25.35206,-25.35458 z m 48.0387,76.671972 c 0,30.44466 -46.65053,30.44466 -46.65053,0 0,-30.44469 46.65053,-30.44469 46.65053,0"
         style="fill:#000070;fill-opacity:1;fill-rule:evenodd;stroke:none;stroke-width:0.35777694"
         id="path4715"
         inkscape:connector-curvature="0" /><path
         d="M 858.33616,99.85162 V 71.634822 c 0,-33.512253 24.66873,-71.63091575 58.60386,-71.63091575 42.48243,0 65.11184,25.57825875 65.11184,67.28857675 0,28.85006 -25.16246,56.435017 -54.26046,56.435017 -16.03558,0 -22.404,-7.64855 -32.55772,-13.02236 0,21.99219 7.09116,49.92526 28.21429,49.92526 11.71721,0 18.61515,-8.47358 19.53465,-19.53676 12.09643,0 22.86551,1.18388 34.7294,2.17063 -2.83714,34.09363 -29.14453,45.58293 -58.60388,45.58293 -42.43949,0 -60.77198,-43.71175 -60.77198,-88.99558 z m 88.81813,-42.686015 c 1.30945,16.684213 -0.26475,41.243818 -24.77964,40.370124 -32.3144,-1.15276 -30.01034,-65.664523 2.30051,-64.511517 12.8764,0.45978 21.47019,11.299348 22.47913,24.141393"
         style="fill:#000070;fill-opacity:1;fill-rule:evenodd;stroke:none;stroke-width:0.35777694"
         id="path4717"
         inkscape:connector-curvature="0" /><path
         d="m 1001.5865,134.58246 28.2142,-2.17029 h 8.6833 c 0,16.73861 8.2933,28.21823 23.8745,28.21823 h 2.1717 c 10.9122,0 21.7027,-10.79483 21.7027,-21.70705 v -4.34089 c 0,-40.843822 -83.6947,-68.781192 -88.98623,-132.4081344 H 1123.1341 V 36.903982 h -69.4553 c 5.2199,19.548932 67.2836,53.062614 67.2836,91.165858 v 15.19443 c 0,24.92275 -25.3701,45.58293 -49.9208,45.58293 h -19.5345 c -27.3091,0 -47.6201,-26.63757 -49.9206,-54.26474"
         style="fill:#000070;fill-opacity:1;fill-rule:evenodd;stroke:none;stroke-width:0.35777694"
         id="path4719"
         inkscape:connector-curvature="0" /><path
         d="m 578.34349,143.26427 v -32.55913 l 1.14488,-1.98315 44.4359,25.86047 V 2.1743256 h 36.89754 V 188.8472 h -30.38599 c -4.23609,-18.17399 -33.5881,-41.27136 -52.09233,-45.58293"
         style="fill:#000070;fill-opacity:1;fill-rule:evenodd;stroke:none;stroke-width:0.35777694"
         id="path4721"
         inkscape:connector-curvature="0" /><path
         d="m 753.34293,127.12637 c 1.75669,-4.35449 5.14484,-7.49649 9.70291,-8.96945 -4.03214,1.9971 -7.40598,5.12337 -9.70291,8.96945"
         style="fill:#000070;fill-opacity:1;fill-rule:evenodd;stroke:none;stroke-width:0.35777694"
         id="path4723"
         inkscape:connector-curvature="0" /></g></g></svg>